<?xml version="1.0" standalone="no"?><!DOCTYPE svg PUBLIC "-//W3C//DTD SVG 1.1//EN" "http://www.w3.org/Graphics/SVG/1.1/DTD/svg11.dtd"><svg t="1689917142259" class="icon" viewBox="0 0 1025 1024" version="1.1" xmlns="http://www.w3.org/2000/svg" p-id="5939" xmlns:xlink="http://www.w3.org/1999/xlink" width="64.0625" height="64"><path d="M692.378345 594.536976" fill="#ffffff" p-id="5940"></path><path d="M620.225757 594.536976" fill="#ffffff" p-id="5941"></path><path d="M722.432132 514.404378 301.582868 514.404378c-29.878786 0-54.107566 24.21503-54.107566 54.116316l0 60.112573c0 29.873786 24.22878 54.111316 54.107566 54.111316l420.844264 0c29.882536 0 54.116316-24.23753 54.116316-54.111316l0.005 0 0-60.112573C776.548448 538.620657 752.319668 514.404378 722.432132 514.404378zM548.081919 642.632034c-13.281266 0-24.052529-10.776263-24.052529-24.042529 0-13.301266 10.771263-24.052529 24.052529-24.052529 13.286266 0 24.047529 10.752513 24.047529 24.052529C572.129448 631.855771 561.368185 642.632034 548.081919 642.632034zM620.225757 642.632034c-13.281266 0-24.052529-10.776263-24.052529-24.042529 0-13.301266 10.771263-24.052529 24.052529-24.052529 13.286266 0 24.047529 10.752513 24.047529 24.052529C644.273286 631.855771 633.512023 642.632034 620.225757 642.632034zM692.378345 642.632034c-13.291266 0-24.062529-10.776263-24.062529-24.042529 0-13.301266 10.771263-24.052529 24.062529-24.052529 13.276266 0 24.033779 10.752513 24.033779 24.052529C716.412125 631.855771 705.654611 642.632034 692.378345 642.632034z" fill="#ffffff" p-id="5942"></path><path d="M548.081919 594.536976" fill="#ffffff" p-id="5943"></path><path d="M512.016875 0C229.23403 0 0 229.23403 0 512.016875 0 794.77597 229.23403 1024 512.016875 1024c282.774095 0 512.006875-229.22403 512.006875-511.983125C1024.025 229.23403 794.79097 0 512.016875 0zM800.597227 628.633267c0 43.173803-34.995043 78.163845-78.168845 78.163845L301.577868 706.797113c-43.165053 0-78.155095-34.990043-78.155095-78.163845l0-60.112573c0-43.163803 34.990043-78.158845 78.155095-78.158845l18.740023 0L320.317891 364.194195l0.015 0c0.2925-25.995032 21.693776-46.991307 48.090059-46.991307 26.396282 0 47.807558 20.996276 48.091309 46.991307l0.015 0 0 126.167654 305.897873 0c43.173803 0 78.168845 35.005043 78.168845 78.158845L800.595977 628.633267z" fill="#ffffff" p-id="5944"></path><path d="M341.860417 364.770445 341.860417 364.770445l0-0.0575 0-0.02c0.01-14.658768 11.900015-26.547532 26.567532-26.547532 14.672518 0 26.567532 11.888765 26.567532 26.562532 0 0.01375-0.005 0.03375-0.005 0.0625l0.005 0 0 125.591403-53.125065 0L341.870417 364.770445 341.860417 364.770445 341.860417 364.770445 341.860417 364.770445z" fill="#ffffff" p-id="5945"></path><path d="M776.543448 628.633267" fill="#ffffff" p-id="5946"></path><path d="M512.016875 999.03622" fill="#ffffff" p-id="5947"></path></svg>