<?xml version="1.0" standalone="no"?><!DOCTYPE svg PUBLIC "-//W3C//DTD SVG 1.1//EN" "http://www.w3.org/Graphics/SVG/1.1/DTD/svg11.dtd"><svg t="1692655324617" class="icon" viewBox="0 0 1024 1024" version="1.1" xmlns="http://www.w3.org/2000/svg" p-id="4017" xmlns:xlink="http://www.w3.org/1999/xlink" width="48" height="48"><path d="M918.954 325.046l-250-250.4c-6-6-14.1-9.4-22.6-9.4h-400.1c-83.1 0.1-150.5 67.5-150.5 150.7v592.2c0.1 83 67.4 150.4 150.5 150.6h531.5c83.1-0.1 150.5-67.5 150.5-150.7v-460.4c0-8.5-3.3-16.6-9.3-22.6z" fill="#958DFE" p-id="4018"></path><path d="M669.354 514.646l-156.9-196.2-156.9 196.2h98v187.5h117.7v-187.5h98.1z" fill="#FFFFFF" p-id="4019"></path><path d="M919.054 324.946h-151.7c-55.5 0-100.6-45-100.6-100.6v-151.7l127.8 126.3 124.5 126z" fill="#C6C9FF" p-id="4020"></path></svg>