<?xml version="1.0" standalone="no"?><!DOCTYPE svg PUBLIC "-//W3C//DTD SVG 1.1//EN" "http://www.w3.org/Graphics/SVG/1.1/DTD/svg11.dtd"><svg t="1689736875023" class="icon" viewBox="0 0 1024 1024" version="1.1" xmlns="http://www.w3.org/2000/svg" p-id="9565" xmlns:xlink="http://www.w3.org/1999/xlink" width="64" height="64"><path d="M516.096 844.8c-38.912 0-69.632 7.168-69.632 15.36s31.744 15.36 69.632 15.36c38.912 0 69.632-7.168 69.632-15.36s-31.744-15.36-69.632-15.36z m-4.096-696.32c-144.384 0-261.12 114.688-261.12 257.024 0 55.296 18.432 107.52 48.128 149.504l175.104 203.776c19.456 22.528 54.272 22.528 73.728 0L717.824 563.2c34.816-44.032 55.296-98.304 55.296-157.696 0-142.336-116.736-257.024-261.12-257.024z m182.272 397.312L543.744 717.824c-17.408 19.456-48.128 19.456-64.512 0L324.608 537.6c-26.624-36.864-43.008-82.944-43.008-132.096 0-125.952 103.424-227.328 230.4-227.328s230.4 101.376 230.4 227.328c0 53.248-18.432 101.376-48.128 140.288zM517.12 302.08c-56.32 0-102.4 46.08-102.4 102.4s46.08 102.4 102.4 102.4 102.4-46.08 102.4-102.4-46.08-102.4-102.4-102.4z" fill="#ffffff" p-id="9566"></path></svg>