<?xml version="1.0" standalone="no"?><!DOCTYPE svg PUBLIC "-//W3C//DTD SVG 1.1//EN" "http://www.w3.org/Graphics/SVG/1.1/DTD/svg11.dtd"><svg t="1692889361592" class="icon" viewBox="0 0 1024 1024" version="1.1" xmlns="http://www.w3.org/2000/svg" p-id="2299" width="32" height="32" xmlns:xlink="http://www.w3.org/1999/xlink"><path d="M950.857143 109.714286v804.571428q0 14.857143-10.857143 25.714286t-25.714286 10.857143h-292.571428q-14.857143 0-25.714286-10.857143t-10.857143-25.714286V109.714286q0-14.857143 10.857143-25.714286t25.714286-10.857143h292.571428q14.857143 0 25.714286 10.857143t10.857143 25.714286z m-512 0v804.571428q0 14.857143-10.857143 25.714286t-25.714286 10.857143H109.714286q-14.857143 0-25.714286-10.857143t-10.857143-25.714286V109.714286q0-14.857143 10.857143-25.714286t25.714286-10.857143h292.571428q14.857143 0 25.714286 10.857143t10.857143 25.714286z" p-id="2300" fill="#515151"></path></svg>