<?xml version="1.0" standalone="no"?><!DOCTYPE svg PUBLIC "-//W3C//DTD SVG 1.1//EN" "http://www.w3.org/Graphics/SVG/1.1/DTD/svg11.dtd"><svg t="1689917102162" class="icon" viewBox="0 0 1024 1024" version="1.1" xmlns="http://www.w3.org/2000/svg" p-id="5504" xmlns:xlink="http://www.w3.org/1999/xlink" width="64" height="64"><path d="M768 128H256c-106 0-192 86-192 192v384c0 106 86 192 192 192h512c106 0 192-86 192-192V320c0-106-86-192-192-192z m-77 192a96 96 0 1 1-96 96 96 96 0 0 1 96-96zM384 608a32 32 0 0 1-32 32H224a32 32 0 0 1-32-32 32 32 0 0 1 32-32h128a32 32 0 0 1 32 32z m0-192a32 32 0 0 1-32 32H224a32 32 0 0 1-32-32 32 32 0 0 1 32-32h128a32 32 0 0 1 32 32z m453.67 288H544.33A32 32 0 0 1 515 659.14a192.05 192.05 0 0 1 352 0A32 32 0 0 1 837.67 704z" fill="#ffffff" p-id="5505"></path></svg>